<svg width="0" height="0" class="hidden">
  <symbol fill="none" xmlns="http://www.w3.org/2000/svg" viewBox="0 0 20 20" id="explore">
    <path fill-rule="evenodd" clip-rule="evenodd" d="M10 20C15.5228 20 20 15.5228 20 10C20 4.47715 15.5228 0 10 0C4.47715 0 0 4.47715 0 10C0 15.5228 4.47715 20 10 20ZM10.9969 16.8033C14.3214 16.3204 16.875 13.4584 16.875 10C16.875 6.5416 14.3214 3.67963 10.9969 3.19674C10.7004 3.15368 10.5521 3.13215 10.3988 3.19165C10.2758 3.23941 10.1459 3.35182 10.0809 3.46672C10 3.60986 10 3.78158 10 4.125V15.875C10 16.2184 10 16.3901 10.0809 16.5333C10.1459 16.6482 10.2758 16.7606 10.3988 16.8084C10.5521 16.8679 10.7004 16.8463 10.9969 16.8033Z" fill="currentColor"></path>
  </symbol>
  <symbol fill="none" xmlns="http://www.w3.org/2000/svg" viewBox="0 0 43 32" id="services-arrow">
    <g id="Group 35531">
      <path id="Arrow 1" d="M42.6925 25.0518C43.083 24.6613 43.083 24.0281 42.6925 23.6376L36.3285 17.2737C35.938 16.8831 35.3048 16.8831 34.9143 17.2737C34.5238 17.6642 34.5238 18.2973 34.9143 18.6879L40.5711 24.3447L34.9143 30.0016C34.5238 30.3921 34.5238 31.0253 34.9143 31.4158C35.3048 31.8063 35.938 31.8063 36.3285 31.4158L42.6925 25.0518ZM1 25.3447H41.9854V23.3447H1V25.3447Z" fill="currentColor"></path>
      <line id="Line 1" x1="1.84314" y1="25.4264" x2="1.84314" y2="5.34058e-05" stroke="currentColor" stroke-width="2"></line>
    </g>
  </symbol>
  <symbol fill="none" xmlns="http://www.w3.org/2000/svg" viewBox="0 0 24 24" id="timer">
    <g id="62e4d07a86728d3e0deae5e1_timer.svg">
      <path opacity="0.24" d="M14.7814 9.68221L12.0001 12L14.7815 14.3178C17.1156 16.2629 18.2827 17.2355 18.5543 18.0343C19.0062 19.3635 18.4758 20.8284 17.2778 21.5602C16.5577 22 15.0385 22 12.0001 22C8.96165 22 7.44245 22 6.7224 21.5602C5.52432 20.8284 4.99398 19.3635 5.44587 18.0343C5.71746 17.2355 6.88454 16.2629 9.21871 14.3178L12.0001 12L9.21871 9.68221C6.88455 7.73707 5.71746 6.7645 5.44587 5.96565C4.99398 4.63647 5.52432 3.17164 6.7224 2.43983C7.44245 2 8.96165 2 12.0001 2C15.0385 2 16.5577 2 17.2778 2.43983C18.4758 3.17164 19.0062 4.63647 18.5543 5.96565C18.2827 6.7645 17.1156 7.73707 14.7814 9.68221Z" fill="url(#paint0_radial_58_479)"></path>
      <path id="Vector_2" d="M15 14.5L15.6 15C17.2605 16.3838 18.0908 17.0757 18.3678 17.6012C19.1922 19.1654 18.4919 21.0997 16.8572 21.7736C16.3079 22 15.2272 22 13.0656 22H12C8.96155 22 7.44235 22 6.7223 21.5602C5.52422 20.8284 4.99388 19.3635 5.44577 18.0343C5.71736 17.2355 6.88444 16.2629 9.21861 14.3178L14.7813 9.68221C17.1155 7.73707 18.2826 6.7645 18.5542 5.96565C19.0061 4.63647 18.4757 3.17164 17.2777 2.43983C16.5576 2 15.0384 2 12 2H10.9344C8.77279 2 7.69202 2 7.14277 2.22641C5.50806 2.90028 4.80775 4.83458 5.63217 6.39878C5.90917 6.92434 6.73943 7.61623 8.39996 9L8.99996 9.5" stroke="url(#paint1_radial_58_479)" stroke-width="1.5" stroke-linecap="round" stroke-linejoin="round"></path>
    </g>
    <defs>
      <radialGradient id="paint0_radial_58_479" cx="0" cy="0" r="1" gradientUnits="userSpaceOnUse" gradientTransform="translate(12.0001 12) rotate(90) scale(29.9275 20.0939)">
        <stop stop-color="currentColor"></stop>
        <stop offset="1" stop-color="currentColor" stop-opacity="0"></stop>
      </radialGradient>
      <radialGradient id="paint1_radial_58_479" cx="0" cy="0" r="1" gradientUnits="userSpaceOnUse" gradientTransform="translate(12 12) rotate(90) scale(29.9275 20.0957)">
        <stop stop-color="currentColor"></stop>
        <stop offset="1" stop-color="currentColor" stop-opacity="0"></stop>
      </radialGradient>
    </defs>
  </symbol>
  <symbol fill="none" xmlns="http://www.w3.org/2000/svg" viewBox="0 0 22 20" id="email">
    <path d="M21 7.5V7C21 6.07099 21 5.60649 20.9384 5.21783C20.5996 3.07837 18.9216 1.40042 16.7822 1.06156C16.3935 1 15.929 1 15 1H9C6.19974 1 4.79961 1 3.73005 1.54497C2.78924 2.02433 2.02433 2.78924 1.54497 3.73005C1 4.79961 1 6.19974 1 9V11C1 13.8003 1 15.2004 1.54497 16.27C2.02433 17.2108 2.78924 17.9757 3.73005 18.455C4.79961 19 6.19974 19 9 19H15C15.929 19 16.3935 19 16.7822 18.9384C18.9216 18.5996 20.5996 16.9216 20.9384 14.7822C21 14.3935 21 13.929 21 13V12.5M17 6L16 6.66667L15.4376 7.0416C13.8338 8.1108 13.0319 8.6454 12.1652 8.8531C11.3992 9.0366 10.6008 9.0366 9.8348 8.8531C8.96808 8.6454 8.16618 8.1108 6.5624 7.0416L6 6.66667L5 6" stroke="currentColor" stroke-width="1.5" stroke-linecap="round"></path>
  </symbol>
  <symbol fill="none" xmlns="http://www.w3.org/2000/svg" viewBox="0 0 22 22" id="dribble">
    <path d="M7.74405 1.55447C9.2385 3.72197 10.5433 5.98037 11.6579 8.30691M11.6579 8.30691C13.9856 7.29225 16.1661 5.8333 18.071 3.92891M11.6579 8.30691C12.2393 9.5203 12.7689 10.7523 13.2466 11.9995M15.5454 19.9044C15.2102 18.2534 14.7909 16.6164 14.2874 15M20.9755 11.8911C18.3466 11.3161 15.712 11.3846 13.2466 11.9995M13.2466 11.9995C9.5714 12.9162 6.27243 15.0473 3.92951 18.0711M3.92951 18.0711C7.83483 21.9763 14.1656 21.9763 18.071 18.071C21.9763 14.1658 21.9763 7.83414 18.071 3.92891M3.92951 18.0711C0.0241625 14.1659 0.0231626 7.83417 3.92851 3.92895C7.83386 0.02371 14.1657 0.02367 18.071 3.92891M1.06166 9.9289C3.37618 10.1743 5.72353 10.0358 8 9.5125" stroke="currentColor" stroke-width="1.5" stroke-linecap="round" stroke-linejoin="round"></path>
  </symbol>
  <symbol fill="none" xmlns="http://www.w3.org/2000/svg" viewBox="0 0 22 22" id="Instagram">
    <path d="M11 7C13.2091 7 15 8.79086 15 11C15 13.2091 13.2091 15 11 15C8.79086 15 7 13.2091 7 11C7 10.2714 7.19479 9.5883 7.53513 9M17 5C17 5.27614 16.7761 5.5 16.5 5.5C16.2239 5.5 16 5.27614 16 5M17 5C17 4.72386 16.7761 4.5 16.5 4.5C16.2239 4.5 16 4.72386 16 5M17 5H16M9 21H13C15.8003 21 17.2004 21 18.27 20.455C19.2108 19.9757 19.9757 19.2108 20.455 18.27C21 17.2004 21 15.8003 21 13V9C21 6.19974 21 4.79961 20.455 3.73005C19.9757 2.78924 19.2108 2.02433 18.27 1.54497C17.2004 1 15.8003 1 13 1H9C6.19974 1 4.79961 1 3.73005 1.54497C2.78924 2.02433 2.02433 2.78924 1.54497 3.73005C1 4.79961 1 6.19974 1 9V13C1 15.8003 1 17.2004 1.54497 18.27C2.02433 19.2108 2.78924 19.9757 3.73005 20.455C4.79961 21 6.19974 21 9 21Z" stroke="currentColor" stroke-width="1.5" stroke-linecap="round" stroke-linejoin="round"></path>
  </symbol>
  <symbol fill="none" xmlns="http://www.w3.org/2000/svg" viewBox="0 0 24 20" id="twitter">
    <path d="M12.1549 6.59518C12.0664 6.24819 12.0221 5.9012 12.0221 5.55422C12.0221 3.03855 14.1026 1 16.67 1C17.998 1 19.1932 1.52048 20.0785 2.43133C21.0966 2.21446 22.1147 1.8241 23 1.30361C23 4.17647 21.3577 5.23529 21.3577 5.23529C21.3577 5.23529 21.3577 5.57093 21.3577 6.0747C21.3577 12.1036 16.67 19 8.12676 19C5.47082 19 3.03622 18.2627 1 16.9614C3.44338 17.2607 5.91219 16.5817 7.86117 15.0964C5.82495 15.053 4.09859 13.7518 3.52314 11.9301C4.2429 12.0309 4.89236 12.0176 5.60362 11.8434C3.43329 11.4003 1.88531 9.4941 1.88531 7.33253C2.50503 7.67952 3.25755 7.85301 4.01006 7.89639C2.00439 6.60881 1.30896 3.84966 2.5493 1.8241C4.2001 3.7838 6.44286 5.27502 9 6.04177" stroke="currentColor" stroke-width="1.5" stroke-linecap="round" stroke-linejoin="round"></path>
  </symbol>
  <symbol fill="none" xmlns="http://www.w3.org/2000/svg" viewBox="0 0 24 23" id="linkedin">
    <path d="M6.21107 8.57715H2.35139C2.03163 8.57715 1.77246 8.83632 1.77246 9.15608V20.735C1.77246 21.0549 2.03171 21.314 2.35139 21.314H6.21107C6.53083 21.314 6.79 21.0548 6.79 20.735V9.15608C6.79007 8.83632 6.53083 8.57715 6.21107 8.57715ZM5.63213 20.1561H2.9304V9.73501H5.63213V20.1561Z" fill="white"></path>
    <path d="M3.89474 1.62891C2.29852 1.62891 1 2.92742 1 4.52364C1 6.11986 2.29852 7.41838 3.89474 7.41838C5.49096 7.41838 6.78947 6.11986 6.78947 4.52364C6.78947 2.92742 5.49096 1.62891 3.89474 1.62891ZM3.89474 6.26051C2.93703 6.26051 2.15787 5.48135 2.15787 4.52364C2.15787 3.56601 2.93696 2.78677 3.89474 2.78677C4.85244 2.78677 5.63161 3.56594 5.63161 4.52364C5.63161 5.48135 4.85251 6.26051 3.89474 6.26051Z" fill="white"></path>
    <path d="M17.0174 8.5752C15.8677 8.5752 14.7351 8.87283 13.7367 9.42712V9.1542C13.7367 8.83444 13.4774 8.57527 13.1578 8.57527H10.07C9.75026 8.57527 9.49109 8.83451 9.49109 9.1542V20.7331C9.49109 21.0529 9.75033 21.3121 10.07 21.3121H13.9297C14.2495 21.3121 14.5086 21.0528 14.5086 20.7331V16.5766C14.5086 15.2154 14.8099 13.5928 16.2455 13.5928C17.3168 13.5928 17.7562 14.4965 17.9103 15.5209C17.9526 15.8018 18.196 16.0084 18.4802 16.0084C18.8367 16.0084 19.1048 15.6888 19.0498 15.3366C18.7591 13.4764 17.773 12.4349 16.2455 12.4349C14.4059 12.4349 13.3508 13.9446 13.3508 16.5766V20.1542H10.649V9.73306H12.5788V10.4943C12.5788 10.6739 12.6536 10.8492 12.794 10.9612C13.0119 11.1349 13.312 11.1289 13.52 10.962C14.5227 10.1581 15.732 9.73306 17.0174 9.73306C20.3502 9.73306 21.842 12.5439 21.842 15.3295V20.1541H19.1402V18.2477C19.1402 17.9289 18.8818 17.6704 18.563 17.6704H18.5597C18.2408 17.6704 17.9824 17.9289 17.9824 18.2477V20.733C17.9824 21.0528 18.2417 21.3119 18.5614 21.3119H22.421C22.7408 21.3119 23 21.0527 23 20.733V15.3295C22.9998 11.3527 20.5398 8.5752 17.0174 8.5752Z" fill="white"></path>
  </symbol>
</svg>