<svg width="24" height="24" viewBox="0 0 24 24" fill="none" xmlns="http://www.w3.org/2000/svg">
<g id="62e4d07a86728d3e0deae5e1_timer.svg">
<path id="Vector" opacity="0.24" d="M14.7814 9.68221L12.0001 12L14.7815 14.3178C17.1156 16.2629 18.2827 17.2355 18.5543 18.0343C19.0062 19.3635 18.4758 20.8284 17.2778 21.5602C16.5577 22 15.0385 22 12.0001 22C8.96165 22 7.44245 22 6.7224 21.5602C5.52432 20.8284 4.99398 19.3635 5.44587 18.0343C5.71746 17.2355 6.88454 16.2629 9.21871 14.3178L12.0001 12L9.21871 9.68221C6.88455 7.73707 5.71746 6.7645 5.44587 5.96565C4.99398 4.63647 5.52432 3.17164 6.7224 2.43983C7.44245 2 8.96165 2 12.0001 2C15.0385 2 16.5577 2 17.2778 2.43983C18.4758 3.17164 19.0062 4.63647 18.5543 5.96565C18.2827 6.7645 17.1156 7.73707 14.7814 9.68221Z" fill="url(#paint0_radial_58_479)"/>
<path id="Vector_2" d="M15 14.5L15.6 15C17.2605 16.3838 18.0908 17.0757 18.3678 17.6012C19.1922 19.1654 18.4919 21.0997 16.8572 21.7736C16.3079 22 15.2272 22 13.0656 22H12C8.96155 22 7.44235 22 6.7223 21.5602C5.52422 20.8284 4.99388 19.3635 5.44577 18.0343C5.71736 17.2355 6.88444 16.2629 9.21861 14.3178L14.7813 9.68221C17.1155 7.73707 18.2826 6.7645 18.5542 5.96565C19.0061 4.63647 18.4757 3.17164 17.2777 2.43983C16.5576 2 15.0384 2 12 2H10.9344C8.77279 2 7.69202 2 7.14277 2.22641C5.50806 2.90028 4.80775 4.83458 5.63217 6.39878C5.90917 6.92434 6.73943 7.61623 8.39996 9L8.99996 9.5" stroke="url(#paint1_radial_58_479)" stroke-width="1.5" stroke-linecap="round" stroke-linejoin="round"/>
</g>
<defs>
<radialGradient id="paint0_radial_58_479" cx="0" cy="0" r="1" gradientUnits="userSpaceOnUse" gradientTransform="translate(12.0001 12) rotate(90) scale(29.9275 20.0939)">
<stop stop-color="white"/>
<stop offset="1" stop-color="white" stop-opacity="0"/>
</radialGradient>
<radialGradient id="paint1_radial_58_479" cx="0" cy="0" r="1" gradientUnits="userSpaceOnUse" gradientTransform="translate(12 12) rotate(90) scale(29.9275 20.0957)">
<stop stop-color="white"/>
<stop offset="1" stop-color="white" stop-opacity="0"/>
</radialGradient>
</defs>
</svg>
